<?xml version="1.0" standalone="no"?>
<!DOCTYPE svg PUBLIC "-//W3C//DTD SVG 20010904//EN"
 "http://www.w3.org/TR/2001/REC-SVG-20010904/DTD/svg10.dtd">
<svg version="1.0" xmlns="http://www.w3.org/2000/svg"
 width="32.000000pt" height="32.000000pt" viewBox="0 0 32.000000 32.000000"
 preserveAspectRatio="xMidYMid meet">

<g transform="translate(0.000000,32.000000) scale(0.100000,-0.100000)"
fill="#000000" stroke="none">
<path d="M217 282 c-25 -27 -21 -49 11 -64 28 -14 38 -45 13 -40 -8 2 -21 0
-30 -4 -12 -5 -9 -9 14 -15 41 -12 60 7 45 45 -5 15 -8 31 -5 36 7 11 -12 60
-23 60 -5 0 -16 -8 -25 -18z"/>
<path d="M173 184 c-13 -28 -10 -44 8 -44 6 0 8 9 4 19 -3 11 -1 22 5 26 12 7
14 25 3 25 -5 0 -13 -12 -20 -26z"/>
<path d="M72 150 c-19 -31 -15 -94 7 -114 24 -22 41 -13 41 19 0 13 4 27 10
30 6 3 10 15 10 25 0 16 -5 18 -30 14 -19 -4 -30 -2 -30 5 0 6 7 11 16 11 9 0
14 5 12 12 -7 20 -23 19 -36 -2z"/>
</g>
</svg>
